<?xml version="1.0" standalone="no"?>
<!DOCTYPE svg PUBLIC "-//W3C//DTD SVG 20010904//EN"
 "http://www.w3.org/TR/2001/REC-SVG-20010904/DTD/svg10.dtd">
<svg version="1.0" xmlns="http://www.w3.org/2000/svg"
 width="350.000000pt" height="350.000000pt" viewBox="0 0 350.000000 350.000000"
 preserveAspectRatio="xMidYMid meet">
<metadata>
Created by potrace 1.14, written by Peter Selinger 2001-2017
</metadata>
<g transform="translate(0.000000,350.000000) scale(0.100000,-0.100000)"
fill="#000000" stroke="none">
<path d="M1165 3410 c-40 -9 -108 -45 -124 -64 -8 -9 -29 -16 -48 -16 -48 0
-102 -25 -148 -69 -23 -22 -59 -43 -85 -50 -53 -15 -115 -75 -125 -120 -5 -22
-17 -35 -53 -53 -94 -46 -119 -153 -62 -264 35 -69 34 -65 15 -58 -20 8 -20
-20 0 -76 13 -37 13 -46 2 -59 -8 -9 -17 -24 -20 -33 -4 -10 -13 -18 -21 -18
-19 0 -28 -30 -31 -101 -1 -31 -5 -61 -9 -68 -11 -18 3 -31 35 -31 36 0 36 -7
0 -78 -114 -228 -189 -469 -216 -699 -19 -161 -19 -257 0 -408 35 -278 124
-498 275 -680 147 -177 356 -303 580 -352 113 -24 329 -23 455 1 429 85 803
357 1087 791 132 200 231 419 282 623 49 195 73 482 57 681 l-5 54 55 17 c172
53 235 144 156 222 -35 35 -74 57 -150 84 -45 16 -47 18 -31 35 15 17 15 20 0
44 -9 14 -19 25 -22 25 -3 0 -26 -16 -50 -36 -24 -20 -44 -34 -44 -31 0 2 9
26 21 52 17 39 19 49 8 56 -23 15 -53 6 -64 -18 -5 -13 -13 -23 -17 -23 -9 0
-10 6 -12 65 -1 35 -5 42 -40 61 -22 13 -65 52 -95 88 -132 155 -297 260 -506
322 -131 39 -344 45 -503 15 -162 -31 -326 -92 -462 -172 l-55 -32 42 45 c53
58 73 97 80 157 13 111 -60 193 -152 171z m99 -36 c68 -68 51 -199 -36 -280
-18 -17 -53 -46 -78 -64 -36 -25 -40 -30 -18 -25 22 6 27 3 33 -17 6 -19 63
-106 120 -184 15 -20 -38 -117 -95 -173 -64 -64 -176 -122 -249 -128 l-57 -5
-12 38 c-6 22 -31 80 -56 130 l-44 91 21 23 22 23 -30 -18 c-16 -10 -51 -32
-76 -47 -25 -16 -62 -31 -82 -35 -32 -5 -40 -2 -67 27 -17 18 -37 57 -46 87
-30 102 2 183 85 216 30 12 40 22 45 48 8 44 72 104 126 120 28 8 60 28 84 52
44 44 90 67 137 67 17 0 43 8 57 19 96 67 171 80 216 35z m1534 -563 c24 -12
46 -29 49 -37 8 -21 -13 -64 -32 -64 -17 0 -21 25 -5 35 6 3 10 12 9 18 0 8
-2 8 -6 -1 -10 -26 -68 -45 -138 -46 -81 -1 -128 17 -133 52 -4 26 -22 20 -22
-8 0 -34 56 -55 146 -55 67 0 81 -3 79 -15 -2 -12 -19 -15 -86 -15 -70 0 -90
4 -122 23 -43 27 -58 66 -34 89 53 53 212 66 295 24z m-1445 -47 c51 -26 197
-150 197 -166 0 -5 8 -20 17 -35 9 -14 19 -46 21 -72 2 -25 8 -51 13 -57 5 -6
7 -13 5 -15 -2 -2 -6 -18 -9 -36 -5 -26 -3 -33 14 -38 11 -4 27 -17 35 -31 15
-22 15 -28 -2 -76 -18 -52 -53 -98 -74 -98 -6 0 -15 -12 -21 -27 -18 -47 -28
-54 -54 -37 -21 14 -23 13 -29 -10 -10 -41 -44 -56 -147 -62 -73 -5 -102 -3
-131 9 -41 17 -52 13 -37 -15 9 -17 8 -18 -8 -9 -10 5 -30 21 -45 35 -18 17
-28 21 -32 13 -5 -12 -20 2 -66 61 -15 19 -23 23 -27 14 -7 -17 -43 34 -43 61
0 9 -6 17 -14 17 -17 0 -26 22 -26 66 0 19 -4 34 -9 34 -10 0 -23 137 -15 166
4 16 18 22 75 31 38 6 95 23 127 39 69 34 189 151 217 211 11 24 24 43 28 43
4 0 22 -7 40 -16z m-579 -41 c13 -26 12 -30 -47 -106 -34 -43 -65 -81 -69 -83
-4 -3 -28 32 -54 76 -25 45 -49 79 -51 76 -3 -3 18 -44 45 -93 57 -99 65 -119
91 -214 l18 -67 -49 -23 c-26 -12 -46 -24 -44 -26 2 -2 29 8 60 24 42 20 59
24 67 16 7 -7 9 -19 5 -28 -6 -18 -95 -61 -144 -71 -28 -6 -32 -4 -32 15 0 12
7 24 16 28 12 4 8 13 -22 44 -37 38 -37 39 -19 59 l18 20 27 -25 c38 -36 48
-31 11 6 l-31 30 -26 -20 c-28 -22 -74 -28 -74 -11 0 6 6 13 14 16 8 3 27 23
42 45 14 21 33 39 40 39 9 0 5 12 -11 36 -28 42 -31 66 -11 84 12 10 20 1 46
-49 16 -34 33 -61 35 -61 3 0 -6 22 -20 49 -22 44 -75 176 -75 188 0 2 5 1 10
-2 6 -3 10 -1 10 5 0 7 6 8 19 0 33 -17 77 -11 132 19 30 16 55 30 56 30 1 1
9 -11 17 -26z m2160 1 c12 -5 9 -18 -21 -77 -32 -65 -76 -117 -89 -104 -3 3 0
15 6 27 10 19 6 28 -35 76 -38 45 -44 55 -30 60 11 5 29 -6 55 -31 l38 -37 17
33 c17 34 35 59 40 59 2 0 10 -3 19 -6z m-389 -45 c34 -17 55 -20 132 -17 92
3 124 -6 108 -31 -4 -8 -28 -9 -71 -5 -64 7 -64 7 -64 -19 0 -20 6 -27 32 -32
30 -7 31 -8 13 -21 -10 -8 -25 -14 -33 -14 -23 0 -162 121 -162 141 0 23 -3
23 45 -2z m305 11 c0 -5 -4 -10 -10 -10 -5 0 -10 5 -10 10 0 6 5 10 10 10 6 0
10 -4 10 -10z m-369 -35 c16 -9 60 -42 98 -75 110 -94 140 -112 186 -108 40 3
40 3 40 -32 l0 -35 -55 -1 c-31 0 -92 -12 -140 -28 -108 -35 -174 -36 -236 -5
-60 30 -85 64 -91 123 -15 128 92 215 198 161z m546 -1 c3 -9 -6 -28 -26 -48
l-32 -33 77 -12 c43 -6 80 -13 82 -16 3 -2 2 -11 -2 -20 -4 -12 -14 -15 -33
-11 -16 3 -62 8 -103 11 -62 5 -83 3 -120 -13 -45 -20 -130 -28 -130 -13 0 9
44 41 55 41 4 0 3 -9 0 -20 -3 -11 -4 -20 -1 -20 2 0 51 38 108 85 56 47 106
85 111 85 4 0 10 -7 14 -16z m-247 -50 c19 -2 39 -3 43 -3 12 -1 -12 -41 -24
-41 -6 0 -28 -13 -49 -30 -33 -26 -39 -28 -50 -15 -7 9 -11 17 -9 19 2 1 15
10 28 19 l23 16 -41 11 c-26 7 -41 17 -41 26 0 13 8 14 43 8 23 -4 58 -8 77
-10z m380 -68 c0 -3 -4 -8 -10 -11 -5 -3 -10 -1 -10 4 0 6 5 11 10 11 6 0 10
-2 10 -4z m-890 -41 c0 -63 34 -109 104 -143 l37 -18 -51 -13 c-47 -12 -52
-12 -94 13 -49 29 -76 64 -76 100 0 25 53 96 71 96 5 0 9 -16 9 -35z m-1734 0
c14 -22 15 -30 4 -50 -17 -32 -22 -31 -43 5 -33 55 5 97 39 45z m2426 0 c13
-29 -1 -51 -35 -58 -15 -3 -12 -5 11 -6 27 -1 32 -5 32 -25 0 -33 -16 -36 -91
-19 l-65 14 4 35 c4 31 10 38 56 59 66 30 74 30 88 0z m96 -2 c21 -13 28 -13
55 0 65 30 73 30 101 -3 33 -40 33 -70 0 -110 -56 -66 -198 -113 -394 -130
-99 -9 -135 -8 -249 9 -73 11 -135 22 -138 24 -12 13 24 47 49 47 15 0 70 14
121 30 108 34 170 38 272 14 l70 -17 63 32 c59 30 64 31 92 16 36 -19 54 -19
69 -2 8 11 6 18 -10 32 l-20 19 26 13 c27 15 32 28 13 39 -6 4 -8 3 -4 -4 3
-6 -7 -19 -24 -28 l-30 -18 22 -23 c30 -32 16 -40 -32 -18 -40 18 -42 18 -85
-3 l-44 -21 1 34 c1 19 5 35 10 35 5 0 6 -4 3 -10 -7 -11 8 -14 18 -3 4 3 -5
16 -18 29 -14 13 -25 28 -25 33 0 14 58 3 88 -16z m-2561 -100 c-14 -15 -16
-14 -22 10 -10 37 4 53 22 27 14 -20 14 -23 0 -37z m1899 -108 c-21 -19 -52
-37 -70 -41 -17 -4 -25 -9 -18 -11 6 -3 33 5 58 17 41 20 51 21 101 11 31 -6
69 -11 85 -11 78 0 -18 -53 -143 -79 -52 -11 -103 -23 -115 -26 -18 -6 -22 0
-34 49 -12 53 -12 57 6 71 28 21 115 54 144 54 24 0 23 -1 -14 -34z m-1582
-139 c31 -63 63 -119 72 -127 12 -10 28 -10 80 0 48 9 70 9 79 1 8 -6 19 -10
27 -8 7 1 29 -9 48 -23 55 -41 136 -70 211 -76 92 -8 99 -17 64 -94 -26 -59
-27 -63 -15 -140 13 -95 28 -141 44 -136 6 2 25 45 42 96 l31 92 27 -52 c34
-61 46 -52 46 34 0 49 3 57 19 57 10 0 21 6 24 14 6 15 -10 36 -28 36 -5 0
-21 20 -34 45 -20 37 -22 50 -13 69 8 19 8 27 -4 36 -16 14 -19 30 -4 30 5 0
19 -18 30 -40 11 -22 23 -40 26 -40 3 0 -6 21 -20 46 -29 52 -30 62 -15 113
15 52 47 63 319 115 311 59 282 58 297 16 6 -19 12 -65 12 -101 l1 -66 -132
-71 c-73 -39 -166 -82 -206 -95 -40 -14 -76 -28 -80 -32 -4 -4 3 -4 15 -1 29
9 35 -4 66 -134 27 -112 77 -377 77 -409 0 -30 -60 -48 -147 -43 l-32 2 -4 78
-3 77 -2 -80 -2 -81 -47 -18 c-148 -56 -400 -82 -548 -57 -64 11 -175 52 -175
65 0 3 11 43 24 89 17 59 26 122 31 220 7 130 9 137 29 138 11 0 -21 9 -73 20
-205 43 -276 115 -361 361 -25 73 -34 111 -26 113 83 26 116 38 141 55 17 11
31 20 32 20 1 0 26 -51 57 -114z m1430 67 c25 -73 21 -108 -14 -133 l-30 -21
0 33 c0 18 -7 60 -14 93 -11 45 -12 62 -3 67 28 18 45 7 61 -39z m-1268 -803
c19 0 18 -5 -10 -91 -14 -43 -21 -78 -16 -83 5 -5 5 -17 -1 -28 -6 -10 -9 -26
-8 -36 1 -9 1 -34 0 -55 l-1 -38 -25 18 c-19 14 -21 20 -11 27 10 7 6 17 -21
44 -23 22 -31 38 -25 44 6 6 5 19 -4 36 -17 34 -18 82 -1 82 7 0 12 14 13 35
0 32 34 88 34 57 0 -21 18 -13 26 11 3 12 12 28 18 36 9 11 12 7 14 -22 2 -24
8 -37 18 -37z m890 -200 c3 -19 7 -43 9 -52 2 -10 -1 -18 -6 -18 -5 0 -9 -18
-9 -40 0 -22 -4 -40 -10 -40 -5 0 -10 -11 -10 -25 0 -14 -7 -28 -15 -31 -8 -4
-15 -14 -15 -24 0 -28 -27 -85 -32 -69 -7 18 -10 14 -33 -45 -11 -26 -24 -48
-30 -48 -5 1 -20 -8 -32 -20 -12 -11 -26 -17 -31 -14 -5 3 -27 -8 -48 -25 -22
-17 -47 -35 -57 -41 -16 -8 -18 -7 -12 11 8 26 4 26 -37 1 -35 -21 -94 -28
-83 -10 5 8 -10 9 -44 4 -45 -6 -51 -5 -45 10 5 13 -1 16 -30 16 -20 0 -36 2
-36 5 0 15 54 131 64 137 8 6 7 8 -1 8 -7 0 -31 18 -53 40 -39 39 -41 40 -127
45 -49 3 -82 3 -75 -1 7 -3 12 -27 12 -61 0 -48 -2 -54 -15 -43 -12 10 -15 9
-16 -6 -1 -11 -6 -2 -11 19 -6 20 -14 37 -19 37 -5 0 -9 6 -9 13 0 7 -9 32
-20 55 -11 22 -20 50 -20 61 0 11 -5 23 -10 26 -12 7 -8 103 4 123 5 9 14 8
36 -3 88 -46 337 -61 505 -31 77 14 202 51 217 65 5 4 37 7 73 6 l65 0 6 -35z
m-694 -242 c51 -11 118 -58 118 -82 0 -6 -15 -46 -32 -88 l-33 -78 -50 0 c-27
0 -55 4 -62 8 -16 10 -22 252 -6 252 6 0 35 -5 65 -12z m477 -239 c-8 -5 -27
-9 -42 -9 -17 0 -26 -4 -22 -10 4 -6 21 -8 42 -4 26 5 34 4 29 -5 -4 -6 -20
-11 -37 -11 -16 0 -29 -5 -29 -11 0 -7 14 -8 41 -4 33 6 40 4 37 -6 -3 -8 -18
-15 -34 -17 -16 -2 -33 -8 -39 -14 -7 -7 3 -9 33 -4 33 5 43 3 40 -6 -3 -7
-19 -14 -36 -16 -18 -2 -32 -7 -32 -13 0 -12 22 -12 54 1 20 7 26 6 31 -9 10
-32 49 -59 100 -72 28 -6 56 -13 62 -15 7 -2 10 -10 7 -19 -4 -10 -14 -13 -30
-9 -15 4 -24 2 -24 -5 0 -6 14 -11 30 -11 25 0 30 -4 30 -24 0 -14 -4 -27 -9
-30 -4 -3 -6 6 -3 19 2 15 0 25 -7 25 -6 0 -11 -9 -11 -20 0 -16 -5 -19 -32
-15 -18 3 -27 3 -20 -1 16 -8 15 -29 -3 -44 -19 -16 -19 -31 0 -24 8 4 18 16
21 29 4 17 11 21 30 17 14 -2 24 -11 24 -21 0 -23 -45 -65 -62 -58 -7 3 -49
33 -93 66 -75 57 -183 111 -223 111 -12 0 -17 8 -17 30 0 36 12 39 21 5 3 -14
10 -22 15 -19 5 3 4 14 -2 26 -9 16 -8 19 3 16 7 -3 15 -18 18 -34 4 -19 8
-25 13 -16 5 7 5 21 2 32 -4 11 -2 20 4 20 12 0 24 -37 16 -50 -3 -5 -2 -10 3
-10 15 0 23 30 13 48 -6 12 -5 24 4 36 10 13 12 36 8 81 -5 59 -4 64 18 76 13
7 29 12 36 11 6 -1 15 3 19 10 6 9 9 9 12 -1 2 -7 -2 -17 -9 -22z m-460 -27
c23 3 27 1 23 -14 -3 -14 -15 -18 -56 -18 -59 0 -66 3 -59 30 4 16 9 17 34 8
16 -6 42 -8 58 -6z m-2 -56 c2 -2 -2 -18 -7 -36 -15 -52 7 -70 85 -70 66 0 85
-11 85 -47 0 -34 -29 -43 -147 -43 -119 0 -126 -2 -199 -72 l-41 -39 -31 30
c-31 31 -52 40 -52 21 0 -5 6 -10 13 -10 17 0 53 -38 44 -46 -3 -3 -18 0 -34
8 -19 9 -28 21 -28 38 0 34 26 36 64 5 34 -29 42 -24 14 8 -17 19 -17 20 5 8
12 -6 22 -17 23 -24 0 -8 2 -8 6 1 3 7 -3 22 -13 33 -16 18 -16 19 2 19 15 0
16 2 5 9 -8 6 -12 19 -9 35 3 15 2 29 -2 31 -17 10 3 45 25 45 31 0 72 35 86
74 12 32 13 33 58 28 25 -2 47 -5 48 -6z m-277 -116 c0 -11 -4 -20 -9 -20 -5
0 -11 9 -14 20 -3 13 0 20 9 20 8 0 14 -9 14 -20z m40 0 c0 -11 -4 -20 -10
-20 -5 0 -10 9 -10 20 0 11 5 20 10 20 6 0 10 -9 10 -20z m490 -11 c0 -11 -4
-17 -10 -14 -5 3 -10 15 -10 26 0 11 5 17 10 14 6 -3 10 -15 10 -26z m-570 2
c0 -10 -9 -21 -20 -24 -22 -6 -27 12 -8 31 17 17 28 15 28 -7z m19 -68 c-1
-34 -2 -35 -9 -13 -11 36 -11 50 0 50 6 0 10 -17 9 -37z m31 7 c0 -16 -2 -30
-4 -30 -2 0 -6 14 -8 30 -3 17 -1 30 4 30 4 0 8 -13 8 -30z m32 5 c3 -14 2
-25 -2 -25 -4 0 -10 11 -12 25 -3 14 -2 25 2 25 4 0 10 -11 12 -25z m-91 -24
c5 -26 4 -31 -9 -29 -21 4 -36 32 -29 52 10 26 31 14 38 -23z m1063 -16 c7
-27 1 -45 -14 -45 -5 0 -7 14 -3 30 3 19 1 30 -6 30 -6 0 -11 -11 -11 -25 0
-14 -4 -25 -8 -25 -5 0 -9 14 -9 30 0 24 5 30 23 30 15 0 24 -8 28 -25z m23
-32 c-3 -10 -5 -4 -5 12 0 17 2 24 5 18 2 -7 2 -21 0 -30z m-57 -28 c0 -15
-25 -53 -42 -64 -24 -15 -40 -4 -17 12 9 7 21 22 28 35 10 19 31 31 31 17z
m28 -37 c-2 -25 -8 -34 -25 -36 -21 -3 -21 -3 -5 32 21 44 34 46 30 4z"/>
<path d="M1151 2851 c12 -21 33 -52 46 -67 l25 -29 -18 30 c-53 90 -98 146
-53 66z"/>
<path d="M1070 2856 c0 -12 87 -143 100 -151 7 -4 -11 28 -40 71 -61 91 -60
90 -60 80z"/>
<path d="M1031 2795 c30 -53 79 -125 85 -125 5 0 -65 113 -89 143 -13 15 -12
10 4 -18z"/>
<path d="M992 2740 c13 -22 34 -53 47 -68 l23 -27 -18 30 c-29 50 -66 105 -71
105 -2 0 7 -18 19 -40z"/>
<path d="M961 2680 c48 -76 74 -106 48 -57 -18 33 -89 137 -94 137 -3 0 18
-36 46 -80z"/>
<path d="M896 2663 c48 -69 74 -101 59 -73 -15 28 -96 140 -101 140 -3 0 16
-30 42 -67z"/>
<path d="M1386 2571 c-3 -5 11 -11 32 -13 42 -6 53 -1 32 12 -19 12 -57 13
-64 1z"/>
<path d="M1120 2530 c-11 -11 -20 -30 -20 -42 1 -22 1 -22 18 5 9 15 27 30 39
33 13 4 20 10 17 15 -9 15 -33 10 -54 -11z"/>
<path d="M1380 2510 c-24 -24 -28 -110 -6 -152 14 -26 13 -29 -26 -68 -22 -22
-44 -40 -47 -40 -14 0 2 -65 18 -77 23 -18 86 -34 105 -27 10 4 16 18 16 40 0
29 6 38 43 61 l42 27 -62 28 c-35 15 -63 31 -63 34 0 3 8 1 17 -5 16 -9 73 10
73 25 0 2 -9 0 -19 -6 -29 -15 -32 -13 -21 16 9 22 7 27 -10 31 -24 6 -25 12
-4 28 13 9 14 16 6 32 -15 27 -41 36 -60 21 -13 -11 -14 -10 -3 10 16 30 56
29 76 -2 9 -13 19 -43 24 -67 8 -40 9 -41 10 -11 2 48 -24 101 -54 112 -34 13
-32 13 -55 -10z m70 -216 c22 -9 40 -20 40 -25 0 -13 -105 -41 -142 -37 l-32
3 33 38 c37 42 45 43 101 21z m-23 -111 c-3 -10 -5 -4 -5 12 0 17 2 24 5 18 2
-7 2 -21 0 -30z m-30 -14 c15 -1 16 -2 1 -6 -20 -5 -78 23 -78 38 0 6 13 1 29
-10 16 -12 37 -22 48 -22z"/>
<path d="M1169 2475 c-28 -15 -49 -60 -49 -104 1 -34 32 -102 56 -121 14 -12
14 -9 -4 14 -29 38 -28 51 3 21 33 -34 51 -31 74 12 15 30 15 32 -16 44 l-28
11 23 11 c27 12 27 17 1 51 -33 42 -72 31 -82 -24 -4 -21 -4 -20 -6 8 -2 61
61 93 108 55 12 -10 30 -45 41 -78 18 -58 18 -58 13 -15 -8 61 -27 97 -63 115
-35 18 -38 18 -71 0z"/>
<path d="M1216 2241 c-4 -5 3 -7 14 -4 23 6 26 13 6 13 -8 0 -17 -4 -20 -9z"/>
<path d="M590 2447 c0 -2 14 -16 31 -33 16 -16 28 -22 24 -14 -5 13 -55 56
-55 47z"/>
<path d="M1591 1905 c0 -5 8 -26 19 -45 11 -19 19 -30 19 -25 0 6 -8 26 -19
45 -11 19 -19 31 -19 25z"/>
<path d="M1630 1815 c0 -5 5 -17 10 -25 5 -8 10 -10 10 -5 0 6 -5 17 -10 25
-5 8 -10 11 -10 5z"/>
<path d="M1671 1700 c0 -8 4 -24 9 -35 5 -13 9 -14 9 -5 0 8 -4 24 -9 35 -5
13 -9 14 -9 5z"/>
<path d="M1614 1646 c-8 -21 13 -46 32 -39 20 8 13 47 -9 51 -9 2 -20 -4 -23
-12z"/>
<path d="M1692 1625 c0 -11 4 -33 8 -50 7 -27 8 -27 8 -5 0 14 -4 36 -8 50 -6
20 -8 21 -8 5z"/>
<path d="M1712 1520 c0 -14 2 -19 5 -12 2 6 2 18 0 25 -3 6 -5 1 -5 -13z"/>
<path d="M1650 1484 c-11 -12 -11 -18 1 -30 13 -12 18 -12 34 0 16 12 17 16 6
30 -17 20 -25 20 -41 0z"/>
<path d="M1722 1460 c0 -19 2 -27 5 -17 2 9 2 25 0 35 -3 9 -5 1 -5 -18z"/>
<path d="M1660 1325 c-15 -17 -5 -35 20 -35 22 0 33 23 17 39 -15 15 -22 14
-37 -4z"/>
<path d="M1121 819 c17 -11 129 -12 129 -1 0 4 -32 8 -72 9 -45 1 -66 -2 -57
-8z"/>
<path d="M1110 768 c0 -4 27 -8 60 -8 33 0 60 3 60 8 0 4 -27 7 -60 8 -33 0
-60 -3 -60 -8z"/>
<path d="M1810 371 c0 -5 -7 -17 -16 -26 -9 -9 -13 -19 -9 -23 4 -4 15 4 26
17 21 26 24 41 9 41 -5 0 -10 -4 -10 -9z"/>
</g>
</svg>
